<svg width="156" height="143" viewBox="0 0 156 143" fill="none" xmlns="http://www.w3.org/2000/svg">
<circle cx="101" cy="55" r="55" fill="#2FBF71"/>
<path d="M140.401 100.421L142.502 105.143L147.594 106.029L142.872 108.13L141.986 113.222L139.885 108.5L134.793 107.614L139.515 105.513L140.401 100.421Z" fill="#7000FF"/>
<path d="M74.8222 57.7876C42.3597 84.7195 31.8253 133.903 55.1043 140.988C82.7575 149.404 43.8025 96.2617 1 124.396" stroke="#FCDC4D" stroke-width="2" stroke-linecap="round" stroke-linejoin="round"/>
<path d="M90.4581 82.624L118.256 64.7077L152.139 22.6798L88.2557 57.3246L89.3569 69.9743L90.4581 82.624Z" fill="#5105B2"/>
<path d="M152.139 22.6799L141.994 77.6906L98.1833 57.8028L152.139 22.6799Z" fill="#7000FF"/>
<path d="M152.139 22.6802L88.3147 57.2807L49.4672 52.8488L152.139 22.6802Z" fill="#7000FF"/>
<mask id="mask0_391_3347" style="mask-type:alpha" maskUnits="userSpaceOnUse" x="99" y="29" width="29" height="26">
<path d="M127.83 38.6515L102.767 54.9213L99.3104 52.7974L104.21 34.2874L122.431 29.1823L127.83 38.6515Z" fill="#D9D9D9"/>
</mask>
<g mask="url(#mask0_391_3347)">
<path d="M113.857 36.834C108.376 39.1181 104.578 45.7617 105.39 51.6437C106.202 57.5258 111.322 60.453 116.803 58.1689C122.284 55.8848 126.083 49.2411 125.27 43.3591C124.458 37.477 119.338 34.5499 113.857 36.834Z" fill="#7000FF"/>
<path d="M113.857 36.8341C108.376 39.1182 104.578 45.7618 105.39 51.6438C106.202 57.5259 111.322 60.4531 116.803 58.169C122.284 55.8849 126.083 49.2412 125.27 43.3592C124.458 37.4771 119.338 34.55 113.857 36.8341ZM117.092 60.2607C110.536 62.9926 104.413 59.4915 103.441 52.4561C102.469 45.4207 107.012 37.4744 113.568 34.7425C120.124 32.0106 126.248 35.5116 127.219 42.547C128.191 49.5824 123.648 57.5287 117.092 60.2607Z" fill="#DAC4F7"/>
<path d="M104.166 52.1539C103.212 45.2487 107.571 37.4666 113.932 34.5979C113.811 34.6442 113.689 34.6919 113.568 34.7425C107.012 37.4744 102.469 45.4207 103.441 52.4561C104.413 59.4915 110.536 62.9926 117.092 60.2607C117.214 60.2101 117.334 60.1572 117.454 60.1031C111.037 62.559 105.12 59.0591 104.166 52.1539Z" fill="#DAC4F7"/>
<path d="M113.857 36.8338C113.751 36.8781 113.645 36.9246 113.54 36.9721C118.9 34.9295 123.839 37.8553 124.636 43.6234C125.432 49.3915 121.795 55.8914 116.485 58.2951C116.591 58.2546 116.697 58.213 116.803 58.1688C122.284 55.8847 126.083 49.241 125.27 43.3589C124.458 37.4769 119.338 34.5497 113.857 36.8338Z" fill="#994AFC"/>
<path fill-rule="evenodd" clip-rule="evenodd" d="M111.615 48.6791C111.483 47.7422 111.603 46.6972 112.131 45.9224C112.716 45.0635 113.742 45.0009 114.407 45.2914C115.57 45.7991 116.563 47.1531 116.771 48.6155C116.89 49.459 116.927 50.0273 116.663 50.8668C116.1 52.6585 114.39 52.6412 113.416 51.8955C112.575 51.2507 111.822 50.1399 111.615 48.6799L111.615 48.6791ZM117.431 48.7661C117.527 49.5555 117.46 50.388 117.148 51.1885C116.822 52.024 116.338 52.5494 115.788 52.826C114.332 53.411 112.982 52.7838 112.157 51.6416C111.169 50.2746 110.53 48.2825 111.318 46.2411C111.433 45.9425 111.682 45.5416 111.888 45.3123C113.414 43.6211 115.403 44.6609 116.333 45.9465C116.91 46.746 117.276 47.678 117.431 48.7661Z" fill="#994AFC"/>
<path fill-rule="evenodd" clip-rule="evenodd" d="M113.063 46.713C112.939 45.8337 112.901 44.9584 113.208 44.1392C113.393 43.649 113.608 43.2472 114.026 42.9269C115.725 41.6259 117.727 43.809 118.412 45.1541C118.879 46.0733 119.141 47.1701 119.093 48.3366C119.053 49.2881 118.659 50.5873 117.707 50.9696C115.448 51.8769 113.368 48.8552 113.064 46.7128L113.063 46.713ZM113.96 50.2686C114.516 50.9292 114.987 51.2795 115.74 51.6186C116.995 52.1845 118.682 51.6919 119.359 49.8584C120.556 46.616 118.281 42.2035 115.535 41.8195C114.285 41.7588 113.176 42.4052 112.65 44.0042C111.89 46.313 112.753 48.8344 113.96 50.2688L113.96 50.2686Z" fill="#994AFC"/>
<path fill-rule="evenodd" clip-rule="evenodd" d="M111.279 48.8207C111.146 47.8838 111.266 46.8388 111.794 46.064C112.379 45.2051 113.405 45.1425 114.07 45.433C115.233 45.9407 116.227 47.2947 116.434 48.7571C116.553 49.6006 116.59 50.1689 116.327 51.0084C115.763 52.8001 114.053 52.7828 113.08 52.0371C112.238 51.3923 111.485 50.2815 111.278 48.8215L111.279 48.8207ZM117.094 48.9077C117.19 49.6971 117.123 50.5296 116.811 51.3301C116.486 52.1656 116.001 52.691 115.451 52.9676C113.995 53.5526 112.645 52.9254 111.82 51.7832C110.832 50.4162 110.193 48.4241 110.981 46.3827C111.096 46.0841 111.345 45.6832 111.551 45.4539C113.077 43.7627 115.066 44.8025 115.996 46.0881C116.573 46.8876 116.939 47.8196 117.094 48.9077Z" fill="#DAC4F7"/>
<path fill-rule="evenodd" clip-rule="evenodd" d="M112.726 46.8543C112.602 45.9751 112.564 45.0998 112.872 44.2806C113.056 43.7903 113.271 43.3886 113.69 43.0683C115.389 41.7673 117.391 43.9504 118.075 45.2954C118.542 46.2147 118.804 47.3114 118.756 48.4779C118.716 49.4294 118.322 50.7286 117.37 51.111C115.111 52.0183 113.031 48.9966 112.727 46.8541L112.726 46.8543ZM113.624 50.41C114.179 51.0705 114.65 51.4208 115.403 51.76C116.658 52.3259 118.345 51.8332 119.022 49.9997C120.219 46.7574 117.944 42.3448 115.198 41.9609C113.948 41.9001 112.839 42.5465 112.313 44.1455C111.553 46.4544 112.416 48.9757 113.623 50.4102L113.624 50.41Z" fill="#F2E8FF"/>
</g>
<path d="M132.38 65.5579C131.388 67.2971 132.476 69.3105 134.799 70.0325L138.071 71.0497C138.594 71.2121 138.87 71.0188 138.687 70.6196L138.49 70.186C138.416 70.0252 138.524 69.8355 138.732 69.7623L139.852 69.3658C140.059 69.2926 140.167 69.1029 140.093 68.9421L139.695 68.0737C139.62 67.9129 139.729 67.7232 139.936 67.65L141.056 67.2535C141.264 67.1803 141.372 66.9906 141.297 66.8298L140.899 65.9614C140.825 65.8006 140.933 65.6108 141.141 65.5377L141.698 65.3388C142.213 65.1561 142.207 64.8751 141.684 64.7127L138.412 63.6955C136.082 62.9862 133.371 63.8187 132.38 65.5579ZM134.296 66.1535C134.532 65.7393 135.169 65.5389 135.712 65.7077C136.255 65.8766 136.506 66.3529 136.27 66.7672C136.034 67.1814 135.397 67.3818 134.854 67.2129C134.311 67.044 134.06 66.5678 134.296 66.1535ZM138.408 65.7751C138.578 66.3157 138.498 66.8754 138.215 67.3718C137.932 67.8683 137.446 68.3016 136.803 68.5895C136.64 68.6616 136.432 68.6231 136.341 68.5015C136.249 68.3799 136.305 68.2223 136.468 68.1502C137.496 67.6917 138.022 66.7683 137.748 65.905C137.704 65.7685 137.817 65.6289 137.999 65.5923C138.181 65.5558 138.364 65.6386 138.408 65.7751Z" fill="#5105B3"/>
<path d="M140.572 2.3701L141.554 4.57527L143.931 4.98898L141.726 5.97022L141.313 8.34813L140.331 6.14296L137.953 5.72925L140.159 4.74801L140.572 2.3701Z" fill="white"/>
<path d="M47.339 32.3746L48.8158 35.6934L52.3945 36.316L49.0757 37.7927L48.4531 41.3715L46.9764 38.0527L43.3976 37.4301L46.7164 35.9533L47.339 32.3746Z" fill="#2FBF71"/>
</svg>
